<svg width="27" height="27" viewBox="0 0 27 27" fill="none" xmlns="http://www.w3.org/2000/svg">
<path d="M24.499 0.502332H2.80722C2.52763 0.489235 2.24819 0.531401 1.98492 0.626438C1.72164 0.721476 1.4797 0.867501 1.27293 1.05615C1.06616 1.24481 0.898624 1.4724 0.779929 1.72588C0.661233 1.97937 0.593688 2.25378 0.581177 2.5334V24.274C0.597555 24.8591 0.83735 25.4159 1.25131 25.8297C1.66528 26.2438 2.22202 26.4836 2.80722 26.5H24.499C25.0678 26.4747 25.6042 26.2273 25.993 25.8112C26.3819 25.3951 26.5921 24.8433 26.5788 24.274V2.5334C26.5835 2.26123 26.5325 1.991 26.429 1.73925C26.3255 1.48751 26.1716 1.25956 25.9768 1.06937C25.7821 0.8792 25.5506 0.730819 25.2965 0.633311C25.0423 0.535804 24.771 0.491234 24.499 0.502332ZM8.70543 22.1779H4.91953V10.5927H8.70543V22.1779ZM6.90185 8.83782C6.63766 8.84703 6.37442 8.8015 6.12868 8.70411C5.88292 8.60672 5.65996 8.45955 5.47381 8.27187C5.28766 8.08418 5.14231 7.86003 5.04693 7.61349C4.95154 7.36695 4.90817 7.10335 4.91953 6.83925C4.90785 6.57229 4.95209 6.30585 5.04944 6.057C5.14678 5.80814 5.29506 5.58238 5.48477 5.39421C5.67448 5.20602 5.90143 5.05957 6.15105 4.96425C6.40069 4.86892 6.6675 4.82684 6.93434 4.84068C7.19853 4.83149 7.46177 4.877 7.70751 4.97439C7.95327 5.07179 8.17623 5.21895 8.36238 5.40664C8.54854 5.59432 8.69388 5.81847 8.78926 6.06501C8.88465 6.31155 8.92802 6.57515 8.91666 6.83925C8.92835 7.10621 8.8841 7.37266 8.78676 7.6215C8.68941 7.87037 8.54113 8.09612 8.35143 8.2843C8.16171 8.47249 7.93477 8.61893 7.68514 8.71425C7.4355 8.80958 7.1687 8.85166 6.90185 8.83782ZM22.2567 22.1779H18.4545V15.841C18.4545 14.3299 17.9183 13.29 16.5697 13.29C16.1508 13.2935 15.7432 13.4266 15.4029 13.671C15.0625 13.9154 14.8061 14.259 14.6686 14.6548C14.563 14.9515 14.5188 15.2666 14.5386 15.581V22.1779H10.8015V10.5927H14.5386V12.2176C14.8709 11.6071 15.3654 11.1005 15.9675 10.7534C16.5697 10.4065 17.2561 10.2328 17.9508 10.2514C20.4044 10.2514 22.2567 11.8763 22.2567 15.3373V22.1779Z" fill="#F2F1EE"/>
</svg>
