<svg width="35" height="27" viewBox="0 0 35 27" fill="none" xmlns="http://www.w3.org/2000/svg">
<path d="M34.58 16.1475L30.117 11.5116L34.58 7.66462V16.1475Z" fill="#251B15"/>
<path d="M4.46839 11.5116L1.01471e-07 16.1529V7.66462L4.46839 11.5116Z" fill="#251B15"/>
<path d="M34.58 20.362V24.6304C34.58 25.6624 33.7425 26.5 32.7106 26.5H1.86948C0.837418 26.5 1.01471e-07 25.6625 1.01471e-07 24.6304V20.362L6.68361 13.4243L14.3183 19.9998C15.1126 20.6808 16.1661 21.059 17.29 21.059C18.4139 21.059 19.4729 20.6808 20.2671 19.9998L27.8963 13.4243L34.58 20.362Z" fill="#251B15"/>
<path d="M34.58 2.36408V4.23356L18.2733 18.2817C17.7491 18.7356 16.8307 18.7356 16.3066 18.2817L0 4.23356V2.36408C0 1.33215 0.83735 0.5 1.86948 0.5H32.7106C33.7425 0.5 34.58 1.33215 34.58 2.36408Z" fill="#251B15"/>
</svg>
